<svg width="18" height="9" viewBox="0 0 18 9" fill="none" xmlns="http://www.w3.org/2000/svg">
<path d="M8.70577 3.11538C8.09135 1.37596 6.32163 0 4.37019 0C1.89519 0 0 2.025 0 4.5C0 6.975 1.98173 9 4.45673 9C6.40817 9 8.09567 7.62404 8.70577 5.88462H13.1538V8.65385H16.1438V5.88462H18V3.11538H8.70577ZM4.48269 5.99279C3.66058 5.99279 2.9899 5.32212 2.9899 4.5C2.9899 3.67788 3.66058 3.00721 4.48269 3.00721C5.30481 3.00721 5.97548 3.67788 5.97548 4.5C5.97548 5.32212 5.30481 5.99279 4.48269 5.99279Z" fill="white"/>
</svg>
