<?xml version="1.0" encoding="UTF-8"?>
<svg width="36px" height="38px" viewBox="0 0 36 38" version="1.1" xmlns="http://www.w3.org/2000/svg" xmlns:xlink="http://www.w3.org/1999/xlink">
    <!-- Generator: Sketch 58 (84663) - https://sketch.com -->
    <title>Shape</title>
    <desc>Created with Sketch.</desc>
    <g id="Page-1" stroke="none" stroke-width="1" fill="none" fill-rule="evenodd">
        <g id="Home-Page" transform="translate(-100.000000, -51.000000)" fill="#303446" fill-rule="nonzero">
            <g id="Navbar" transform="translate(100.000000, 51.000000)">
                <g id="Placeholder-Logo">
                    <path d="M19.4019231,27.0241071 C19.3326923,26.3285714 18.6923077,25.7857143 17.9048077,25.7857143 C17.1865385,25.7857143 16.5894231,26.24375 16.4423077,26.8459821 L14.9798077,34.6919643 C14.9365385,34.8870536 14.9105769,35.0821429 14.9105769,35.2857143 C14.9105769,36.7870536 16.2519231,38 17.9134615,38 C19.575,38 20.9163462,36.7870536 20.9163462,35.2857143 C20.9163462,35.0397321 20.8817308,34.8022321 20.8125,34.5732143 L19.4019231,27.0241071 Z M30.8336538,30.3915179 C30.6692308,30.2727679 30.5221154,30.1455357 30.3490385,30.0607143 L24.3865385,26.0316964 C23.8413462,25.709375 23.2615385,25.7178571 22.8375,26.1080357 C22.4480769,26.4558036 22.3961538,26.9901786 22.6817308,27.4142857 L27.2682692,32.9955357 C27.3548077,33.1227679 27.4673077,33.2330357 27.5798077,33.3517857 C28.3153846,34.1236607 29.9336538,34.1660714 30.825,33.3517857 C31.725,32.5205357 31.7163462,31.0446429 30.8336538,30.3915179 Z M34.8230769,24.640625 L29.2413462,24.4455357 C28.8778846,24.3946429 28.5490385,24.6236607 28.4884615,24.9544643 C28.4278846,25.2598214 28.6182692,25.5566964 28.9298077,25.7008929 L28.9384615,25.7008929 L34.3471154,27.2107143 C35.1259615,27.371875 36,27.015625 36,26.2267857 C36,25.2174107 35.7144231,24.7424107 34.8230769,24.640625 L34.8230769,24.640625 Z M7.05288462,25.7008929 C7.36442308,25.5651786 7.54615385,25.2598214 7.49423077,24.9544643 C7.43365385,24.6151786 7.10480769,24.3946429 6.74134615,24.4455357 L1.15961538,24.640625 C0.259615385,24.7424107 0,25.2174107 0,26.2183036 C0,27.0071429 0.856730769,27.371875 1.62692308,27.2022321 L7.03557692,25.6924107 C7.04423077,25.7008929 7.04423077,25.7008929 7.05288462,25.7008929 L7.05288462,25.7008929 Z M11.6134615,26.0232143 L5.65096154,30.04375 C5.47788462,30.1370536 5.31346154,30.2473214 5.16634615,30.3745536 C4.26634615,31.1888393 4.26634615,32.5035714 5.16634615,33.309375 C6.06634615,34.1236607 7.51153846,34.1236607 8.41153846,33.309375 C8.53269231,33.1991071 8.63653846,33.0803571 8.72307692,32.953125 L13.3096154,27.3888393 C13.5951923,26.9647321 13.5432692,26.4388393 13.1538462,26.0910714 C12.7384615,25.709375 12.0634615,25.6839286 11.6134615,26.0232143 L11.6134615,26.0232143 Z M18,0 C18,0 20.6134615,3.00267857 20.6134615,5.4625 C20.6134615,7.82053571 19.0384615,9.72901786 16.6413462,9.72901786 C14.2269231,9.72901786 12.4096154,7.82053571 12.4096154,5.4625 L12.4442308,4.87723214 C10.0903846,7.61696429 8.67980769,11.340625 8.67980769,15.2084821 C8.67980769,20.2638393 12.8509615,24.3522321 18.0086538,24.3522321 C23.1663462,24.3522321 27.3375,20.2638393 27.3375,15.2084821 C27.3288462,9.05044643 24.2307692,1.840625 18,0 Z M17.6625,20.9254464 C15.5855769,20.9254464 13.9067308,19.3223214 13.9067308,17.3375 C13.9067308,15.4883929 15.1269231,14.1821429 17.1865385,13.775 C19.2461538,13.359375 21.3836538,12.3924107 22.5778846,10.8232143 C23.0365385,12.2991071 23.2615385,13.8513393 23.2615385,15.4375 C23.2615385,18.465625 20.7519231,20.9254464 17.6625,20.9254464 L17.6625,20.9254464 Z" id="Shape"></path>
                </g>
            </g>
        </g>
    </g>
</svg>